<?xml version="1.0" encoding="iso-8859-1"?>
<!-- Uploaded to: SVG Repo, www.svgrepo.com, Generator: SVG Repo Mixer Tools -->
<svg height="800px" width="800px" version="1.1" id="Layer_1" xmlns="http://www.w3.org/2000/svg" xmlns:xlink="http://www.w3.org/1999/xlink" 
	 viewBox="0 0 512 512" xml:space="preserve">
<path style="fill:#EC5565;" d="M0,256.006C0,397.402,114.606,512.004,255.996,512C397.394,512.004,512,397.402,512,256.006
	C512.009,114.61,397.394,0,255.996,0C114.606,0,0,114.614,0,256.006z"/>
<path style="fill:#D94453;" d="M511.169,275.721c-0.278-0.287-0.558-0.577-0.833-0.833c-0.5-0.482-151.156-151.19-151.659-151.659
	c-13.177-12.684-25.365-19.193-33.415-19.193c-9.024,0-16.771,8.041-23.195,23.931c-0.149-0.14-0.332-0.246-0.485-0.381
	c-0.477-0.535-26.759-26.826-27.299-27.299c-0.476-0.535-0.977-1.043-1.517-1.517c-3.756-4.224-9.436-6.601-16.768-6.601
	c-13.675,0-21.84,8.048-21.84,21.527v34.002c-0.043-0.037-0.091-0.049-0.133-0.086c-0.506-0.506-32.85-32.927-33.366-33.366
	c-0.506-0.506-0.999-1.076-1.515-1.515c-3.808-3.811-7.894-5.916-12.313-5.916c-24.893,0-89.187,61.12-100.715,179.654
	c-8.834,90.879-4.773,118.925,6.139,128.77c0.485,0.554,82.893,82.942,83.411,83.41c0.205,0.234,0.426,0.422,0.637,0.637
	C201.392,507.5,228.161,512,255.996,512C390.753,512.004,501.093,407.891,511.169,275.721z"/>
<path style="fill:#F4F6F9;" d="M425.885,283.698c-11.521-118.534-75.754-179.661-100.623-179.661
	c-16.277,0-28.416,26.049-36.083,77.414c-0.253,1.728-3.27,3.903-6.011,3.583c-2.745-0.221-5.328-2.545-5.328-4.173v-67.163
	c0-13.479-8.165-21.527-21.84-21.527c-13.675,0-21.84,8.048-21.84,21.527v67.184c0,1.628-2.602,3.946-4.973,4.159l-1.529,0.057
	c-2.303,0.149-4.671-1.472-5.005-3.569c-7.749-49.573-19.803-74.713-35.821-74.713c-24.894,0-89.187,61.119-100.715,179.654
	c-9.758,100.378-3.814,124.179,9.754,131.374c2.566,1.365,5.218,1.984,7.97,1.984c10.468,0,22.338-9.008,36.165-20.475
	c7.859-6.519,21.549-14.525,34.277-15.641c2.883-0.256,5.922-0.157,9.142-0.035c8.83,0.327,19.799,0.725,28.857-8.013
	c13.626-13.138,19.441-43.979,19.441-103.107c0-7.067-0.089-10.522-0.253-14.183c-0.16-3.639,2.083-6.875,5.445-7.856
	c4.429-1.286,8.83-1.941,13.077-1.941c6.405,0,21.559,1.201,24.388,2.083c3.327,1.03,5.556,4.223,5.421,7.757
	c-0.107,2.745-0.163,5.631-0.163,11.346c0,58.937,5.869,89.742,19.622,103.008c9.179,8.844,20.293,8.453,29.23,8.118
	c3.231-0.114,6.285-0.227,9.161,0.029c12.762,1.145,26.454,9.15,34.299,15.654c17.471,14.482,31.814,25.039,44.16,18.484
	C429.692,407.85,435.643,384.047,425.885,283.698z M409.289,402.197c-4.753,2.467-22.277-12.05-28.043-16.828
	c-9.903-8.219-26.215-17.51-42.293-18.954c-3.793-0.334-7.443-0.199-10.988-0.078c-8.606,0.341-14.094,0.291-18.594-4.052
	c-10.206-9.839-15.168-40.103-15.168-92.522c0-5.431,0.05-8.176,0.149-10.793c0.387-10.095-6.047-19.238-15.648-22.217
	c-5.68-1.763-23.753-2.737-28.707-2.737c-5.623,0-11.393,0.846-17.151,2.524c-9.825,2.873-16.373,12.114-15.918,22.48
	c0.157,3.498,0.238,6.797,0.238,13.536c0,52.603-4.902,82.902-14.987,92.628c-4.386,4.23-9.519,4.252-18.221,3.946
	c-3.534-0.142-7.184-0.263-10.959,0.078c-16.035,1.408-32.358,10.707-42.283,18.94c-5.77,4.785-23.318,19.287-28.021,16.835
	c-5.844-3.1-10.948-25.935-2.086-117.105c10.991-112.954,72.366-166.501,86.226-166.501c1.923,0,13.376,10.849,21.438,62.399
	c1.518,9.726,10.572,16.771,20.234,15.846l1.529-0.057c10.305-0.875,18.687-9.257,18.687-18.684v-67.184
	c0-5.339,1.702-6.967,7.28-6.967c5.581,0,7.28,1.628,7.28,6.967v67.163c0,9.456,8.382,17.838,18.679,18.684
	c10.238,0.902,20.205-6.434,21.623-15.947c7.401-49.595,18.481-65.001,21.68-65.001c13.842,0,75.153,53.555,86.133,166.509
	C420.258,376.255,415.139,399.09,409.289,402.197z"/>
</svg>